<?xml version="1.0" encoding="UTF-8" standalone="no"?><svg xmlns="http://www.w3.org/2000/svg" width="248.272" height="46.856" viewBox="0 0 248.272 46.856"><g transform="translate(-101.94 -172.854)"><g transform="translate(101.94 172.854)"><g transform="translate(63.889 8.574)"><g transform="translate(0 0.366)"><rect width="6.556" height="28.873" rx="0.404" fill="#21004f"/><rect width="6.556" height="28.873" rx="0.404" transform="translate(19.248)" fill="#21004f"/><rect width="6.052" height="14.691" rx="0.361" transform="translate(58.256 11.486) rotate(90)" fill="#0075e3"/></g><g transform="translate(31.645)"><circle cx="3.417" cy="3.417" r="3.417" fill="#21004f"/><path d="M183.567,207.022h-4.9a.7.7,0,0,1-.7-.721l.49-18.754a.7.7,0,0,1,.7-.684h3.923a.7.7,0,0,1,.7.684l.489,18.754A.7.7,0,0,1,183.567,207.022Z" transform="translate(-177.699 -177.784)" fill="#21004f"/></g><g transform="translate(59.144 0)"><path d="M215.688,180.832a1.866,1.866,0,0,0-3.4,0l-12.629,26.554a1.091,1.091,0,0,0,.693,1.453.456.456,0,0,0,.147.023h4.427a1.063,1.063,0,0,0,.985-.66l1.435-3.5a.411.411,0,0,1,.383-.256h12.558a.411.411,0,0,1,.382.256l1.588,3.871a.468.468,0,0,0,.434.291h4.791a.452.452,0,0,0,.159-.026,1.091,1.091,0,0,0,.672-1.458Zm2.552,18.089a.443.443,0,0,1-.379.194h-7.746a.445.445,0,0,1-.381-.194.411.411,0,0,1-.034-.369s3.41-7.73,3.9-9.034a.413.413,0,0,1,.772,0c.489,1.3,3.9,9.034,3.9,9.034A.407.407,0,0,1,218.24,198.921Z" transform="translate(-199.576 -179.638)" fill="#0075e3"/><path d="M246.494,180.085h-5.482a.468.468,0,0,0-.467.469v16.523c0,3.827-1.983,6.023-5.44,6.023s-5.44-2.2-5.44-6.023V180.554a.469.469,0,0,0-.469-.469h-5.482a.468.468,0,0,0-.467.469v16.823a11.842,11.842,0,0,0,3.3,8.755,13.323,13.323,0,0,0,17.114,0,11.837,11.837,0,0,0,3.3-8.755V180.554A.469.469,0,0,0,246.494,180.085Z" transform="translate(-193.419 -179.547)" fill="#0075e3"/><path d="M256.75,180.271H246.185a.469.469,0,0,0-.469.469v27.513a.468.468,0,0,0,.469.469H256.75a14.529,14.529,0,0,0,10.668-4.2,14.7,14.7,0,0,0,0-20.051A14.534,14.534,0,0,0,256.75,180.271Zm-4.616,22.183V186.54a.468.468,0,0,1,.469-.469h3.9c4.8,0,8.158,3.464,8.158,8.425s-3.354,8.425-8.158,8.425h-3.9A.468.468,0,0,1,252.134,202.454Z" transform="translate(-187.574 -179.499)" fill="#0075e3"/><path d="M273.666,186.8h-3.792a1,1,0,0,0-1,1l-.277,18.231a1,1,0,0,0,1,1h4.347a1,1,0,0,0,1-1l-.277-18.221A1,1,0,0,0,273.666,186.8Z" transform="translate(-181.622 -177.801)" fill="#0075e3"/><path d="M271.779,179.658a3.509,3.509,0,1,0,3.4,3.527A3.451,3.451,0,0,0,271.779,179.658Z" transform="translate(-181.669 -179.658)" fill="#0075e3"/><path d="M300.864,184.218a14.726,14.726,0,0,0-20.773,0,15.3,15.3,0,0,0,0,20.772,14.712,14.712,0,0,0,20.774,0,15.3,15.3,0,0,0,0-20.772Zm-2.6,10.367c0,4.9-3.33,8.6-7.746,8.6-4.463,0-7.829-3.7-7.829-8.6,0-4.8,3.439-8.554,7.829-8.554a7.351,7.351,0,0,1,5.538,2.481A9.045,9.045,0,0,1,298.265,194.585Z" transform="translate(-179.69 -179.587)" fill="#0075e3"/></g></g><path d="M101.94,189.672v11.475a.568.568,0,0,0,.588.544h5.025a.568.568,0,0,0,.59-.544v-15.9a.567.567,0,0,0-.59-.543h-5.025a.567.567,0,0,0-.588.543Z" transform="translate(-101.94 -169.771)" fill="#0075e3"/><path d="M110.782,194.161v14.145a.568.568,0,0,0,.59.543H116.4a.567.567,0,0,0,.588-.543V180.542A.567.567,0,0,0,116.4,180h-5.025a.568.568,0,0,0-.59.543Z" transform="translate(-99.64 -170.995)" fill="#0075e3"/><path d="M119.625,198.376v20.791a.567.567,0,0,0,.588.543h5.025a.568.568,0,0,0,.59-.543V173.4a.569.569,0,0,0-.59-.544h-5.025a.568.568,0,0,0-.588.544Z" transform="translate(-97.34 -172.854)" fill="#0075e3"/><path d="M128.467,200.072v8.589a.568.568,0,0,0,.59.543h5.025a.567.567,0,0,0,.588-.543V180.309a.567.567,0,0,0-.588-.543h-5.025a.568.568,0,0,0-.59.543Z" transform="translate(-95.04 -171.056)" fill="#0075e3"/><path d="M137.9,183.4a.568.568,0,0,0-.588.544v19.188a.567.567,0,0,0,.588.543h5.025a.568.568,0,0,0,.59-.543V183.945a.569.569,0,0,0-.59-.544Z" transform="translate(-92.74 -170.111)" fill="#0075e3"/></g><rect width="6.556" height="8.756" rx="0.404" transform="translate(175.453 191.638)" fill="#21004f"/></g></svg>